<svg xmlns="http://www.w3.org/2000/svg" width="260" height="38" viewBox="0 0 260 38"><g><g><g><path fill="#b22fb2" d="M73 7.001a1 1 0 0 1-1.999 0 1 1 0 0 1 1.999 0zM61.826 16.42a36.935 36.935 0 0 1 7.069-1.332c.043-.008.069-.01.069-.01l7.976-.847 1.576-3.449c.56-1.777-.17-3.114-.88-3.923a6.335 6.335 0 0 0-1.687-1.34l-.005-.001c-.761-1.532-1.777-2.647-3.02-3.316a6.124 6.124 0 0 0-2.886-.718c-.663 0-1.129.105-1.259.138C68.084.61 67.235.098 66.257.098c-1.863 0-3.559 1.86-3.575 1.879a9.739 9.739 0 0 0-5.148 2.421c-1.086.983-1.618 1.906-1.622 1.914-.55.772-1.186 1.479-1.889 2.102 1.108.426 6.69 2.812 7.802 8.005z"/><path fill="none" stroke="#000" stroke-miterlimit="20" d="M73 7.001a1 1 0 0 1-1.999 0 1 1 0 0 1 1.999 0zM61.826 16.42a36.935 36.935 0 0 1 7.069-1.332c.043-.008.069-.01.069-.01l7.976-.847 1.576-3.449c.56-1.777-.17-3.114-.88-3.923a6.335 6.335 0 0 0-1.687-1.34l-.005-.001c-.761-1.532-1.777-2.647-3.02-3.316a6.124 6.124 0 0 0-2.886-.718c-.663 0-1.129.105-1.259.138C68.084.61 67.235.098 66.257.098c-1.863 0-3.559 1.86-3.575 1.879a9.739 9.739 0 0 0-5.148 2.421c-1.086.983-1.618 1.906-1.622 1.914-.55.772-1.186 1.479-1.889 2.102 1.108.426 6.69 2.812 7.802 8.005v0z"/></g><g><g><g><path fill="#4a0b4c" d="M61.794 18.086a8.457 8.457 0 0 0-.14-1.383 30.09 30.09 0 0 0-1.77.596C55.368 18.98 49.8 22.418 48.888 29.243c2.355.262 4.393.087 4.846.042 3.096-1.07 8.174-4.587 8.059-11.2z"/></g><g><path fill="#751775" d="M61.609 16.482c-1.14-5.38-7.266-7.718-7.777-7.903-2.58 2.193-5.78 3.087-8.709 3.296l.29 16.623c1.064.367 2.187.589 3.254.719.925-6.94 6.568-10.427 11.143-12.13a30.213 30.213 0 0 1 1.799-.605z"/></g><g><path fill="#4a0b4c" d="M58.895 26.17a13.302 13.302 0 0 1-4.768 3.21l22.17 7.79c2.813.162 3.028-2.018 3.033-2.642z"/></g><g><path fill="#751775" d="M84.945 32.155c-.895-2.961-1.61-4.09-5.504-5.361-3.892-1.272-8.806-4.165-8.806-4.165s-3.51-2.221-3.656-4.798c-.079-1.41.522-2.1 1.083-2.438a37.06 37.06 0 0 0-6.194 1.247c.086.46.14.939.149 1.442.06 3.424-1.247 6.032-2.96 7.914l20.515 8.39c.078.024.165.06.26.107l.035.015v.002c.793.404 2.103 1.485 3.46 1.692 1.743.267 2.512-1.086 1.618-4.047z"/></g><g><g><path fill="#942290" d="M43.4 26.08a6.711 6.711 0 0 1-.702-.407c-.057-.036-.112-.075-.165-.113a9.064 9.064 0 0 0-2.444-1.232 10.678 10.678 0 0 0-2.04-.453c-2.136-.264-4.415-.253-4.486-.236l-.371.09-.158.345c-.011.023-1.119 2.386-4.21 4.42-4.108 2.702-9.27 3.987-16.042 2.999-.307-.068-2.047-.396-3.332.563-1.011.751-3.93 1.827-5.016 1.73-1.088-.1-1.877-.17-2.814-2.402-.06-.312-.07-.684-.03-.874.9.062 4.304-.002 7.447-4.037.149-.159 1.398-1.418 3.195-.89 1.365.402 2.601.3 3.672-.302 1.365-.767 2.366-2.315 2.975-4.6.247-.924.384-1.744.506-2.467.177-1.06.33-1.967.772-2.914l.045-.097.007-.014c.119-.245.444-.83.99-1.547l.006.003a.757.757 0 0 1 .015-.03 12.136 12.136 0 0 1 3.16-2.898l.076-.06c1.683-.799 4.085-1.164 7.36-.038.05.02.098.038.149.06 1.835.62 3.137 1.162 4.637 1.786l.577.24c.093.038.19.076.287.11.56.206 1.26.387 2.026.524a18.394 18.394 0 0 0 3.69.27zm.488-14.06a16.44 16.44 0 0 1-1.813.03 16.796 16.796 0 0 1-2.312-.24 10.747 10.747 0 0 1-1.768-.455 5.255 5.255 0 0 1-.225-.086l-.57-.238c-1.436-.597-2.697-1.122-4.394-1.707a16.975 16.975 0 0 0-1.307-.434 76.95 76.95 0 0 0-.782-.246 11.251 11.251 0 0 0-2.464-.378c-2.55-.094-4.524.807-5.967 1.907-.042.031-.082.064-.123.096-1.815 1.353-2.854 3.112-3.407 4.355a8.335 8.335 0 0 0-.549 1.536c-.15.587-.25 1.177-.354 1.797-.121.723-.247 1.47-.474 2.323-.498 1.866-1.25 3.093-2.236 3.647-.692.39-1.524.445-2.473.166-2.843-.836-4.733 1.277-4.812 1.368l-.029.035c-2.996 3.863-6.095 3.474-6.22 3.456l-.064-.01H1.48c-.441.004-.82.189-1.08.518-.583.734-.364 1.964-.283 2.324l.014.065.026.062c1.21 2.926 2.589 3.28 4.136 3.422.1.009.208.012.321.01 1.681-.03 4.67-1.228 5.764-2.041.656-.49 1.721-.376 2.073-.291l.075.015c9.125 1.337 14.147-1.228 17.247-3.298 2.702-1.804 4.022-3.818 4.482-4.64.543-.086 2.276.164 3.603.328a9.14 9.14 0 0 1 1.743.387 7.522 7.522 0 0 1 2.033 1.024c.077.054.154.109.218.15.604.4 1.308.74 2.094 1.01l1.048.358-.286-16.387z"/></g><g><g><path fill="#942290" d="M14.122 9.447c-8.183 3.006-10.788 1.623-11.508.935a.64.64 0 0 0-.664-.13.644.644 0 0 0-.219 1.072c.381.364 1 .769 1.985 1.02.698.178 1.493.259 2.384.243 2.235-.04 5.07-.685 8.465-1.933 10.706-3.932 18.17.34 18.244.384l.562-1.073c-.319-.193-7.934-4.674-19.25-.518z"/></g></g></g></g><g><g><g><path fill="#686868" d="M102.621 34h2.78v.793h-3.794V26.95h1.014z"/></g><g><path fill="#686868" d="M109.449 29.509c.401 0 .757.091 1.074.27a1.9 1.9 0 0 1 .74.787c.177.339.268.735.268 1.179 0 .444-.091.834-.268 1.17-.18.34-.424.602-.74.787a2.08 2.08 0 0 1-1.074.276c-.624 0-1.12-.196-1.496-.595-.376-.396-.56-.943-.56-1.638 0-.698.184-1.245.56-1.64.376-.4.872-.596 1.496-.596zm1.219-.459c-.413-.296-.914-.444-1.507-.444-.541 0-1.025.128-1.447.379a2.606 2.606 0 0 0-.994 1.09c-.242.474-.362 1.032-.362 1.67 0 .635.12 1.19.362 1.66.24.473.572.835.994 1.086.422.253.906.379 1.447.379.593 0 1.094-.149 1.507-.445.41-.296.698-.692.863-1.19v1.558h1.011v-6.107h-1.011v1.555a2.357 2.357 0 0 0-.863-1.19z"/></g><g><path fill="#686868" d="M119.316 29.27c.436.455.655 1.113.655 1.974v3.549h-1.011v-3.461c0-.607-.157-1.074-.467-1.402-.31-.324-.735-.49-1.268-.49-.558 0-1.003.183-1.336.542-.333.359-.498.883-.498 1.572v3.239h-1.014v-6.107h1.014v1.444c.153-.496.43-.877.826-1.145a2.404 2.404 0 0 1 1.375-.402c.713 0 1.285.228 1.724.687z"/></g><g><path fill="#686868" d="M124.543 29.509c.401 0 .757.091 1.074.27.313.183.56.445.74.787.177.339.265.735.265 1.179 0 .444-.088.834-.265 1.17-.18.34-.427.602-.74.787a2.08 2.08 0 0 1-1.074.276c-.624 0-1.123-.196-1.496-.595-.376-.396-.561-.943-.561-1.638 0-.698.185-1.245.561-1.64.373-.4.872-.596 1.496-.596zm1.219-.459c-.413-.296-.915-.444-1.51-.444a2.78 2.78 0 0 0-1.444.379 2.606 2.606 0 0 0-.994 1.09c-.242.474-.362 1.032-.362 1.67 0 .635.12 1.19.362 1.66.24.473.572.835.994 1.086.421.253.906.379 1.444.379.595 0 1.097-.149 1.51-.445.41-.296.698-.692.86-1.19v1.657c0 .63-.18 1.12-.538 1.473-.36.353-.815.527-1.362.527-.521 0-.946-.114-1.276-.348a1.752 1.752 0 0 1-.672-.962h-1c.14.675.47 1.21.991 1.606.519.4 1.188.596 2.011.596.573 0 1.071-.123 1.501-.368.43-.245.764-.587 1-1.022.24-.44.356-.938.356-1.502v-6.206h-1.011v1.555a2.336 2.336 0 0 0-.86-1.19z"/></g><g><path fill="#686868" d="M134.9 28.686v6.107h-1.014v-1.436c-.154.499-.433.877-.83 1.14a2.452 2.452 0 0 1-1.384.395c-.703 0-1.276-.227-1.712-.683-.438-.459-.658-1.111-.658-1.963v-3.56h1.014v3.458c0 .61.157 1.076.465 1.407.313.33.735.495 1.27.495.556 0 1-.179 1.336-.54.333-.36.499-.884.499-1.573v-3.247z"/></g><g><path fill="#686868" d="M139.537 29.509c.399 0 .758.091 1.074.27.313.183.56.445.737.787.18.339.268.735.268 1.179 0 .444-.088.834-.268 1.17a1.929 1.929 0 0 1-.737.787 2.087 2.087 0 0 1-1.074.276c-.624 0-1.122-.196-1.498-.595-.374-.396-.559-.943-.559-1.638 0-.698.185-1.245.559-1.64.376-.4.874-.596 1.498-.596zm1.216-.459c-.41-.296-.911-.444-1.507-.444-.541 0-1.022.128-1.444.379a2.612 2.612 0 0 0-.997 1.09c-.242.474-.362 1.032-.362 1.67 0 .635.12 1.19.362 1.66.242.473.573.835.997 1.086.422.253.903.379 1.444.379.596 0 1.097-.149 1.507-.445.413-.296.7-.692.863-1.19v1.558h1.011v-6.107h-1.01v1.555a2.324 2.324 0 0 0-.864-1.19z"/></g><g><path fill="#686868" d="M147.256 29.509c.399 0 .758.091 1.074.27.313.183.561.445.738.787.18.339.267.735.267 1.179 0 .444-.088.834-.267 1.17a1.929 1.929 0 0 1-.738.787 2.087 2.087 0 0 1-1.074.276c-.624 0-1.122-.196-1.498-.595-.373-.396-.561-.943-.561-1.638 0-.698.188-1.245.56-1.64.377-.4.875-.596 1.5-.596zm1.216-.459c-.41-.296-.911-.444-1.506-.444-.542 0-1.023.128-1.445.379a2.612 2.612 0 0 0-.997 1.09c-.242.474-.361 1.032-.361 1.67 0 .635.12 1.19.361 1.66.243.473.573.835.997 1.086.422.253.903.379 1.445.379.595 0 1.096-.149 1.506-.445.413-.296.701-.692.863-1.19v1.657c0 .63-.179 1.12-.538 1.473-.362.353-.815.527-1.364.527-.519 0-.943-.114-1.274-.348a1.738 1.738 0 0 1-.672-.962h-1.002c.142.675.472 1.21.99 1.606.52.4 1.191.596 2.015.596.57 0 1.07-.123 1.5-.368.43-.245.764-.587 1-1.022.24-.44.357-.938.357-1.502v-6.206h-1.012v1.555a2.324 2.324 0 0 0-.863-1.19z"/></g><g><path fill="#686868" d="M156.776 31.466h-3.903c.029-.667.234-1.174.61-1.518.379-.345.846-.519 1.401-.519.35 0 .672.077.969.222.296.151.53.376.7.681.171.305.245.68.223 1.134zm.98.49zm0 0c.028-.157.042-.342.042-.556 0-.512-.117-.98-.347-1.401a2.609 2.609 0 0 0-1.014-1.014c-.439-.25-.957-.38-1.553-.38a3.16 3.16 0 0 0-1.555.38 2.669 2.669 0 0 0-1.063 1.09c-.256.474-.384 1.032-.384 1.67 0 .635.128 1.19.384 1.66.257.473.61.835 1.063 1.086.453.253.971.379 1.555.379.513 0 .974-.094 1.382-.28a2.55 2.55 0 0 0 1.49-1.91h-1.08a1.54 1.54 0 0 1-.607.993c-.327.248-.738.373-1.228.373-.54 0-1-.173-1.375-.524-.373-.347-.57-.868-.593-1.566z"/></g><g><path fill="#686868" d="M165.893 29.147c.42.359.673.843.76 1.45h-.968a1.391 1.391 0 0 0-.45-.894c-.256-.234-.598-.35-1.028-.35-.364 0-.646.088-.852.261-.202.174-.304.41-.304.707 0 .222.068.401.205.538.136.14.307.242.512.313.203.072.482.146.838.228.453.103.82.208 1.097.316.279.109.515.28.712.519.196.236.296.552.296.954 0 .499-.188.903-.564 1.213-.373.311-.872.468-1.496.468-.726 0-1.318-.174-1.777-.524-.461-.348-.732-.835-.815-1.456h.98c.037.37.2.67.485.9.284.23.66.345 1.127.345.35 0 .621-.089.818-.268a.898.898 0 0 0 .296-.7c0-.237-.071-.425-.213-.565a1.351 1.351 0 0 0-.522-.324 7.86 7.86 0 0 0-.857-.234 8.18 8.18 0 0 1-1.082-.31 1.654 1.654 0 0 1-.69-.496c-.19-.228-.285-.533-.285-.917 0-.513.188-.926.567-1.242.38-.314.895-.473 1.547-.473.69 0 1.245.182 1.663.541z"/></g><g><path fill="#686868" d="M171.368 29.509c.632 0 1.134.196 1.51.595.373.396.56.943.56 1.64 0 .696-.187 1.243-.56 1.639-.376.399-.878.595-1.51.595-.393 0-.749-.091-1.068-.276a1.923 1.923 0 0 1-.744-.786 2.481 2.481 0 0 1-.264-1.171c0-.444.088-.84.265-1.18.176-.341.427-.603.743-.786.319-.179.675-.27 1.068-.27zm1.738-.524a2.79 2.79 0 0 0-1.447-.38c-.593 0-1.097.152-1.507.45a2.304 2.304 0 0 0-.852 1.186v-1.555h-1.011v8.998h1.011v-4.45c.157.49.439.884.852 1.186.41.299.914.45 1.507.45.54 0 1.022-.126 1.447-.38a2.59 2.59 0 0 0 .994-1.084c.242-.47.362-1.026.362-1.661 0-.638-.12-1.196-.362-1.67a2.606 2.606 0 0 0-.994-1.09z"/></g><g><path fill="#686868" d="M180.603 31.466h-3.905c.028-.667.233-1.174.61-1.518.378-.345.845-.519 1.403-.519.348 0 .67.077.966.222.296.151.533.376.704.681.168.305.245.68.222 1.134zm.977.49c.031-.157.045-.342.045-.556 0-.512-.116-.98-.35-1.401a2.62 2.62 0 0 0-1.011-1.014c-.442-.25-.96-.38-1.553-.38-.586 0-1.105.13-1.558.38a2.669 2.669 0 0 0-1.062 1.09c-.257.474-.385 1.032-.385 1.67 0 .635.128 1.19.385 1.66.256.473.61.835 1.062 1.086.453.253.972.379 1.558.379.51 0 .972-.094 1.379-.28a2.58 2.58 0 0 0 .997-.777c.253-.333.419-.712.493-1.134h-1.077c-.077.413-.28.747-.607.994-.33.248-.74.373-1.23.373-.541 0-1-.173-1.373-.524-.376-.347-.573-.868-.595-1.566h4.882z"/></g><g><path fill="#686868" d="M187.81 29.23c.512.416.825.971.945 1.669h-1.068c-.074-.439-.276-.78-.604-1.028-.33-.248-.74-.374-1.23-.374-.357 0-.681.083-.975.245-.29.163-.527.413-.703.75-.18.339-.268.754-.268 1.253 0 .496.088.914.268 1.25.176.337.413.587.703.75.294.165.618.244.974.244.49 0 .9-.125 1.23-.376.329-.253.53-.598.605-1.034h1.068c-.12.704-.433 1.262-.946 1.673-.51.413-1.156.618-1.934.618-.587 0-1.105-.126-1.558-.38a2.654 2.654 0 0 1-1.062-1.084c-.257-.47-.382-1.026-.382-1.661 0-.638.125-1.196.382-1.67a2.67 2.67 0 0 1 1.062-1.09c.453-.25.971-.38 1.558-.38.778 0 1.424.209 1.934.625z"/></g><g><path fill="#686868" d="M191.313 28.686v6.107h-1.011v-6.107zm-1-2.242c.125-.117.29-.174.501-.174.206 0 .374.057.499.174.125.114.19.265.19.45a.583.583 0 0 1-.19.45.704.704 0 0 1-.499.174c-.21 0-.376-.057-.5-.174a.573.573 0 0 1-.192-.45c0-.185.063-.336.191-.45z"/></g><g><path fill="#686868" d="M195.95 29.509c.402 0 .758.091 1.074.27.316.183.564.445.74.787.18.339.268.735.268 1.179 0 .444-.088.834-.267 1.17a1.917 1.917 0 0 1-.741.787 2.08 2.08 0 0 1-1.074.276c-.62 0-1.12-.196-1.495-.595-.373-.396-.561-.943-.561-1.638 0-.698.188-1.245.56-1.64.377-.4.875-.596 1.496-.596zm1.22-.459c-.41-.296-.915-.444-1.508-.444-.54 0-1.025.128-1.447.379a2.606 2.606 0 0 0-.994 1.09c-.242.474-.361 1.032-.361 1.67 0 .635.12 1.19.361 1.66.24.473.573.835.994 1.086.422.253.906.379 1.447.379.593 0 1.097-.149 1.507-.445.413-.296.698-.692.863-1.19v1.558h1.012v-6.107h-1.012v1.555a2.34 2.34 0 0 0-.863-1.19z"/></g><g><path fill="#686868" d="M201.892 26.56v8.233h-1.014V26.56z"/></g><g><path fill="#686868" d="M204.752 28.686v6.107h-1.014v-6.107zm-1.003-2.242c.125-.117.294-.174.501-.174.208 0 .374.057.502.174a.58.58 0 0 1 .188.45.58.58 0 0 1-.188.45.711.711 0 0 1-.502.174c-.207 0-.376-.057-.5-.174a.58.58 0 0 1-.189-.45.58.58 0 0 1 .188-.45z"/></g><g><path fill="#686868" d="M210.172 29.147c.42.359.673.843.764 1.45h-.969a1.418 1.418 0 0 0-.45-.894c-.256-.234-.6-.35-1.03-.35-.363 0-.647.088-.85.261-.205.174-.307.41-.307.707 0 .222.068.401.208.538.136.14.307.242.51.313.205.072.484.146.84.228.453.103.817.208 1.096.316.277.109.513.28.713.519.193.236.293.552.293.954 0 .499-.188.903-.561 1.213-.373.311-.875.468-1.499.468-.723 0-1.318-.174-1.777-.524-.461-.348-.732-.835-.812-1.456h.98c.034.37.197.67.481.9.288.23.661.345 1.128.345.35 0 .624-.089.82-.268a.905.905 0 0 0 .294-.7c0-.237-.071-.425-.21-.565a1.363 1.363 0 0 0-.525-.324 7.779 7.779 0 0 0-.854-.234 8.37 8.37 0 0 1-1.085-.31 1.654 1.654 0 0 1-.69-.496c-.188-.228-.285-.533-.285-.917 0-.513.191-.926.57-1.242.376-.314.892-.473 1.544-.473.69 0 1.245.182 1.663.541z"/></g><g><path fill="#686868" d="M215.482 33.901v.892h-.755c-.624 0-1.088-.151-1.396-.447-.307-.297-.461-.792-.461-1.49v-3.293h-.912v-.877h.912v-1.524h1.022v1.524h1.579v.877h-1.579v3.316c0 .393.072.66.217.806.145.145.396.216.752.216z"/></g><g><path fill="#686868" d="M220.515 29.147c.419.359.675.843.763 1.45h-.968a1.405 1.405 0 0 0-.45-.894c-.256-.234-.601-.35-1.028-.35-.365 0-.647.088-.852.261-.205.174-.305.41-.305.707 0 .222.069.401.205.538.137.14.308.242.51.313.205.072.484.146.84.228.453.103.818.208 1.097.316.28.109.516.28.712.519.197.236.294.552.294.954 0 .499-.186.903-.562 1.213-.373.311-.871.468-1.495.468-.726 0-1.322-.174-1.78-.524-.459-.348-.732-.835-.812-1.456h.98c.037.37.196.67.484.9.285.23.66.345 1.128.345.347 0 .621-.089.818-.268.196-.177.293-.41.293-.7 0-.237-.068-.425-.21-.565a1.373 1.373 0 0 0-.522-.324 7.86 7.86 0 0 0-.858-.234 8.175 8.175 0 0 1-1.082-.31 1.663 1.663 0 0 1-.692-.496c-.188-.228-.282-.533-.282-.917 0-.513.188-.926.567-1.242.379-.314.891-.473 1.544-.473.692 0 1.244.182 1.663.541z"/></g><g><path fill="#686868" d="M223.66 33.602v1.19h-1.225v-1.19z"/></g></g><g><g><path fill="#751775" d="M104.327 6.759v4.774h5.803v1.965h-5.803v4.888h6.472v2.077h-9.018V4.705h9.018V6.76z"/></g><g><path fill="#751775" d="M132.145 9.348c.872.923 1.308 2.239 1.308 3.95v7.165h-2.544v-6.9c0-1.07-.268-1.9-.803-2.486-.536-.587-1.274-.883-2.21-.883-.998 0-1.79.316-2.38.949-.586.632-.88 1.56-.88 2.78v6.54h-2.543v-6.9c0-1.07-.27-1.9-.806-2.486-.536-.587-1.27-.883-2.208-.883-.997 0-1.788.316-2.378.949-.587.632-.88 1.56-.88 2.78v6.54h-2.547v-12.3h2.547v2.566c.31-.891.831-1.575 1.56-2.053.73-.476 1.587-.712 2.567-.712 1.028 0 1.917.253 2.67.757.748.507 1.295 1.237 1.637 2.188.359-.923.931-1.644 1.72-2.165.79-.521 1.681-.78 2.678-.78 1.458 0 2.623.461 3.492 1.384z"/></g><g><path fill="#751775" d="M140.773 10.74c.567-.332 1.205-.5 1.92-.5 1.13 0 2.036.364 2.723 1.093.684.73 1.025 1.718 1.025 2.968 0 1.265-.341 2.26-1.025 2.98-.686.72-1.592 1.082-2.723 1.082-.715 0-1.353-.168-1.92-.501a3.605 3.605 0 0 1-1.339-1.416c-.327-.612-.49-1.327-.49-2.145 0-.803.163-1.512.49-2.13a3.568 3.568 0 0 1 1.339-1.43zm2.7-2.73c-1.116 0-2.068.273-2.857.822a4.318 4.318 0 0 0-1.649 2.188V8.163h-2.546V24.42h2.546v-6.813c.31.908.86 1.635 1.65 2.187.788.55 1.74.823 2.856.823 1.071 0 2.028-.25 2.869-.757.84-.504 1.498-1.234 1.974-2.188.478-.951.715-2.074.715-3.37 0-1.279-.237-2.395-.715-3.346-.476-.955-1.134-1.684-1.974-2.188-.84-.507-1.798-.758-2.869-.758z"/></g><g><path fill="#751775" d="M157.112 10.217c.655 0 1.256.148 1.806.447.552.296.994.755 1.33 1.373.333.615.501 1.373.501 2.264 0 .91-.168 1.667-.501 2.276-.336.613-.778 1.066-1.33 1.362-.55.299-1.151.447-1.806.447a3.725 3.725 0 0 1-1.809-.447c-.553-.296-.994-.75-1.327-1.362-.337-.61-.505-1.367-.505-2.276 0-.891.168-1.649.505-2.264.333-.618.774-1.077 1.327-1.373.55-.3 1.154-.447 1.809-.447zm3.213-1.45c-.952-.507-2.023-.758-3.213-.758-1.191 0-2.26.25-3.205.758a5.512 5.512 0 0 0-2.23 2.188c-.544.95-.815 2.067-.815 3.346 0 1.28.27 2.399.815 3.359a5.505 5.505 0 0 0 2.23 2.199c.946.507 2.014.757 3.205.757 1.19 0 2.261-.25 3.213-.757a5.433 5.433 0 0 0 2.233-2.188c.535-.951.8-2.074.8-3.37 0-1.279-.265-2.395-.8-3.346a5.433 5.433 0 0 0-2.233-2.188z"/></g><g><path fill="#751775" d="M183.047 8.163l-3.418 12.3h-2.812l-3.033-9.508-3.08 9.508h-2.791l-3.415-12.3h2.566l2.344 9.955 3.08-9.955h2.677l3.128 9.955 2.341-9.955z"/></g><g><path fill="#751775" d="M193.646 13.655h-6.985c.06-1.19.425-2.09 1.094-2.7.67-.613 1.501-.918 2.498-.918.627 0 1.202.131 1.73.393.529.26.945.661 1.25 1.205.304.542.444 1.217.413 2.02zm2.478 1.16a5.9 5.9 0 0 0 .088-1.095c0-1.07-.242-2.042-.723-2.91a5.202 5.202 0 0 0-2.077-2.054c-.9-.499-1.954-.747-3.159-.747-1.19 0-2.241.25-3.159.758-.914.504-1.632 1.233-2.15 2.188-.521.95-.784 2.067-.784 3.346 0 1.296.263 2.419.784 3.37.518.954 1.236 1.684 2.15 2.188.918.507 1.969.757 3.16.757 1.028 0 1.956-.188 2.79-.566.832-.382 1.51-.906 2.032-1.576.518-.669.86-1.435 1.025-2.298h-2.723a2.67 2.67 0 0 1-1.082 1.72c-.587.43-1.305.647-2.154.647-.968 0-1.777-.305-2.432-.915-.655-.612-1.006-1.55-1.049-2.814h9.463z"/></g><g><path fill="#751775" d="M202.997 8.667c.775-.47 1.667-.703 2.678-.703v2.765h-.758c-1.117 0-2.014.274-2.689.815-.678.544-1.014 1.441-1.014 2.692v6.227h-2.546v-12.3h2.546v2.41a4.729 4.729 0 0 1 1.783-1.906z"/></g><g><path fill="#751775" d="M210.118 8.163v12.3h-2.546v-12.3zM207.66 3.52c.3-.282.692-.424 1.185-.424.49 0 .889.142 1.193.424.305.285.456.641.456 1.071 0 .433-.15.783-.456 1.051-.304.268-.703.402-1.193.402-.493 0-.886-.134-1.185-.402-.296-.268-.447-.618-.447-1.05 0-.431.15-.787.447-1.072z"/></g><g><path fill="#751775" d="M220.706 9.112c.872.737 1.401 1.723 1.595 2.956h-2.41c-.102-.666-.39-1.207-.857-1.615-.47-.41-1.091-.615-1.863-.615-.64 0-1.137.15-1.484.459-.35.304-.527.717-.527 1.236 0 .387.125.7.379.937.253.24.57.424.948.558.382.137.92.285 1.621.447.92.208 1.67.425 2.242.65a3.625 3.625 0 0 1 1.473 1.06c.41.484.615 1.142.615 1.973 0 1.026-.393 1.86-1.174 2.499-.78.64-1.831.96-3.156.96-1.532 0-2.771-.357-3.717-1.072-.946-.712-1.515-1.709-1.71-2.988h2.479c.074.667.373 1.211.892 1.627.524.419 1.207.627 2.056.627.61 0 1.088-.16 1.439-.482.35-.319.524-.723.524-1.216 0-.43-.134-.772-.402-1.026a2.777 2.777 0 0 0-1.005-.592c-.402-.14-.952-.285-1.652-.433-.892-.21-1.616-.419-2.174-.627a3.376 3.376 0 0 1-1.43-1.017c-.393-.467-.592-1.102-.592-1.905 0-1.043.39-1.889 1.173-2.535.78-.647 1.863-.969 3.248-.969 1.44 0 2.6.365 3.469 1.103z"/></g><g><path fill="#751775" d="M243.852 9.348c.87.923 1.305 2.239 1.305 3.95v7.165h-2.544v-6.9c0-1.07-.267-1.9-.803-2.486-.536-.587-1.273-.883-2.21-.883-.997 0-1.79.316-2.376.949-.59.632-.883 1.56-.883 2.78v6.54h-2.544v-6.9c0-1.07-.267-1.9-.803-2.486-.535-.587-1.273-.883-2.21-.883-.997 0-1.79.316-2.379.949-.587.632-.88 1.56-.88 2.78v6.54h-2.544v-12.3h2.544v2.566c.313-.891.835-1.575 1.564-2.053.729-.476 1.584-.712 2.566-.712 1.026 0 1.914.253 2.666.757.752.507 1.3 1.237 1.641 2.188.356-.923.929-1.644 1.718-2.165.789-.521 1.683-.78 2.68-.78 1.456 0 2.62.461 3.492 1.384z"/></g><g><path fill="#751775" d="M253.75 10.217c.656 0 1.257.148 1.81.447.55.296.99.755 1.327 1.373.333.615.501 1.373.501 2.264 0 .91-.168 1.667-.501 2.276-.336.613-.778 1.066-1.328 1.362-.552.299-1.153.447-1.808.447a3.725 3.725 0 0 1-1.81-.447c-.549-.296-.993-.75-1.326-1.362-.334-.61-.502-1.367-.502-2.276 0-.891.168-1.649.502-2.264.333-.618.777-1.077 1.327-1.373.55-.3 1.154-.447 1.809-.447zm3.214-1.45c-.952-.507-2.023-.758-3.213-.758-1.191 0-2.26.25-3.205.758a5.53 5.53 0 0 0-2.23 2.188c-.544.95-.815 2.067-.815 3.346 0 1.28.27 2.399.815 3.359a5.522 5.522 0 0 0 2.23 2.199c.946.507 2.014.757 3.205.757 1.19 0 2.261-.25 3.213-.757a5.433 5.433 0 0 0 2.233-2.188c.535-.951.803-2.074.803-3.37 0-1.279-.268-2.395-.803-3.346a5.433 5.433 0 0 0-2.233-2.188z"/></g></g></g><g><path fill="#751775" d="M92 2h1v36h-1z"/></g></g></g></g></svg>